# xmcd CD database file
#
# Track frame offsets:
#	150
#	15477
#	29717
#	43809
#	56536
#	69393
#	82670
#	96951
#	113029
#	127403
#	141825
#	153046
#	167017
#	181261
#	195208
#	207855
#	220951
#	234865
#	251579
#	264782
#	280232
#	293169
#	304566
#	319712
#	330995
#
# Disc length: 4605 seconds
#
# Revision: 7
# Processed by: cddbd v1.5.2PL0 Copyright (c) Steve Scherf et al.
# Submitted via: CDex 1.51
#
DISCID=5311fb19
DTITLE=Artie Shaw - Begin The Beguine  [CD 05-10]
DYEAR=2005
DGENRE=Jazz
TTITLE0=Alone Together
TTITLE1=Rose Room
TTITLE2=I Want My Share Of Love
TTITLE3=It's All Yours
TTITLE4=This Is It
TTITLE5=Delightful Delirium
TTITLE6=Any Old Time
TTITLE7=I'm In Love With The Honorable Mr. So-And-So
TTITLE8=Prosshai  (Goodbye, Goodbye)
TTITLE9=Deep Purple
TTITLE10=I'm Coming, Virginia
TTITLE11=Pastel Blue
TTITLE12=You Grow Sweeter As The Years Go By
TTITLE13=You're So Indifferent
TTITLE14=Snug As A Bug In A Rug
TTITLE15=If You Ever Change Your Mind
TTITLE16=One Night Stand
TTITLE17=One Foot In The Groove
TTITLE18=Octoroon
TTITLE19=I Poured My Heart Into A Song
TTITLE20=When Winter Comes
TTITLE21=All I Remember Is You
TTITLE22=Out Of Nowhere
TTITLE23=I Can't Afford To Dream
TTITLE24=Comes Love
EXTD=YEAR: 2005
EXTT0=
EXTT1=
EXTT2=
EXTT3=
EXTT4=
EXTT5=
EXTT6=
EXTT7=
EXTT8=
EXTT9=
EXTT10=
EXTT11=
EXTT12=
EXTT13=
EXTT14=
EXTT15=
EXTT16=
EXTT17=
EXTT18=
EXTT19=
EXTT20=
EXTT21=
EXTT22=
EXTT23=
EXTT24=
PLAYORDER=
